Coordinates
version=1
nRows=19
nColumns=24
inDegrees=yes

Units are S.I. units (second, meters, Newtons, ...)
Angles are in degrees.

endheader
time	pelvis_tilt	pelvis_list	pelvis_rotation	pelvis_tx	pelvis_ty	pelvis_tz	hip_flexion_r	hip_adduction_r	hip_rotation_r	knee_angle_r	ankle_angle_r	subtalar_angle_r	mtp_angle_r	hip_flexion_l	hip_adduction_l	hip_rotation_l	knee_angle_l	ankle_angle_l	subtalar_angle_l	mtp_angle_l	lumbar_extension	lumbar_bending	lumbar_rotation
      4.18500000	    -10.44096977	      7.35194139	     -2.19164397	     -0.77781033	     -0.01841836	     -0.30188745	     26.37268500	     -9.66108399	     -1.15508532	    -62.76266014	    -13.22299845	      4.53864704	     32.65555111	     17.06588078	     12.15731474	      9.13407067	    -15.88534782	      4.89105562	      1.29263649	    -11.55726538	     12.26733264	     -9.97388925	     -3.17001308
      4.19000000	    -10.36235536	      6.97343707	     -2.02556649	     -0.77158842	     -0.01723493	     -0.30239348	     26.98190696	     -9.27570273	     -1.48657139	    -62.22475061	    -12.47610898	      4.67707693	     32.48683972	     16.12715076	     11.86713944	      9.76947381	    -15.24580397	      4.96100174	      0.90708191	    -11.93731271	     12.13950963	     -9.62428834	     -3.50857602
      4.19500000	    -10.29257711	      6.59529594	     -1.86573830	     -0.76541396	     -0.01613576	     -0.30285928	     27.58942186	     -8.88974492	     -1.82369436	    -61.62762818	    -11.74007831	      4.78261985	     32.20423477	     15.21430942	     11.55792418	     10.36132797	    -14.61987093	      5.05343520	      0.56228734	    -12.34149692	     12.01824342	     -9.27854518	     -3.83765586
      4.20000000	    -10.22534780	      6.22579759	     -1.70725320	     -0.75926906	     -0.01512030	     -0.30330726	     28.18558956	     -8.51476054	     -2.16379075	    -60.97229338	    -11.01540249	      4.85208277	     31.80796146	     14.31531185	     11.24231873	     10.92160970	    -14.00150340	      5.16599260	      0.25488348	    -12.76926670	     11.89888490	     -8.94276567	     -4.15329167
      4.20500000	    -10.16678239	      5.87092830	     -1.55642050	     -0.75315816	     -0.01420089	     -0.30372252	     28.77888532	     -8.15173840	     -2.49614656	    -60.25834155	    -10.31168734	      4.88162128	     31.32838129	     13.43774656	     10.92301642	     11.42782907	    -13.38680420	      5.29610192	      0.00069045	    -13.19267303	     11.78653974	     -8.62393522	     -4.45750183
      4.21000000	    -10.10374150	      5.53933848	     -1.40623668	     -0.74706213	     -0.01337744	     -0.30409757	     29.35389734	     -7.81139650	     -2.82342380	    -59.49370107	     -9.62104327	      4.87713915	     30.74510365	     12.56172504	     10.61321752	     11.90783000	    -12.77357588	      5.44290155	     -0.21950249	    -13.62595932	     11.67442193	     -8.33405201	     -4.74040581
      4.21500000	    -10.05212149	      5.22982430	     -1.26105655	     -0.74099434	     -0.01265516	     -0.30444375	     29.92606391	     -7.48892450	     -3.13461287	    -58.66857186	     -8.96108542	      4.84372454	     30.11313694	     11.70747778	     10.30979659	     12.32462861	    -12.15810247	      5.59380305	     -0.38610385	    -14.03286810	     11.57307633	     -8.06696508	     -5.01196141
      4.22000000	    -10.00476755	      4.94441467	     -1.11994581	     -0.73494278	     -0.01203893	     -0.30475475	     30.48590699	     -7.18520130	     -3.42655178	    -57.78384978	     -8.32797744	      4.78266436	     29.45091254	     10.86551715	     10.01711375	     12.69608367	    -11.54210185	      5.74682156	     -0.51221703	    -14.40049964	     11.47732695	     -7.83003978	     -5.27206234
      4.22500000	     -9.96054568	      4.68406718	     -0.97958431	     -0.72890462	     -0.01153014	     -0.30503543	     31.03034032	     -6.90306633	     -3.70232807	    -56.84075078	     -7.71941043	      4.70448318	     28.76152072	     10.03282719	      9.73890125	     13.02773419	    -10.92370256	      5.89707747	     -0.60730854	    -14.72852332	     11.38574054	     -7.62160618	     -5.52460502
      4.23000000	     -9.91718550	      4.44982742	     -0.84020321	     -0.72287995	     -0.01112644	     -0.30527948	     31.55551465	     -6.64252407	     -3.96027911	    -55.83921120	     -7.12345352	      4.62455045	     28.03295961	      9.20651958	      9.47661463	     13.32996734	    -10.30413672	      6.04611625	     -0.67818229	    -15.02567444	     11.29506285	     -7.44650255	     -5.76841185
      4.23500000	     -9.88276289	      4.23591036	     -0.70240765	     -0.71686225	     -0.01083582	     -0.30550862	     32.06811310	     -6.39821243	     -4.19909414	    -54.77643537	     -6.54982344	      4.55114776	     27.30684001	      8.39759476	      9.22792399	     13.59327644	     -9.68866011	      6.19197141	     -0.72091844	    -15.27901354	     11.21433915	     -7.28739640	     -6.00526831
      4.24000000	     -9.84440787	      4.04146847	     -0.56415820	     -0.71085080	     -0.01064278	     -0.30568319	     32.55123752	     -6.16904567	     -4.42740103	    -53.65188978	     -5.98777491	      4.49813620	     26.55843755	      7.59194082	      8.99071720	     13.83177093	     -9.08002279	      6.34168685	     -0.75298049	    -15.49963755	     11.13256857	     -7.16509244	     -6.23876761
      4.24500000	     -9.81628634	      3.86638485	     -0.43243285	     -0.70484633	     -0.01055986	     -0.30583558	     33.02222042	     -5.95245491	     -4.63117952	    -52.46691225	     -5.43218558	      4.48574913	     25.82033687	      6.80534140	      8.76705974	     14.03981265	     -8.47871536	      6.48572205	     -0.76498045	    -15.68751431	     11.06052297	     -7.05652501	     -6.46118771
      4.25000000	     -9.79093925	      3.70509290	     -0.30185012	     -0.69884678	     -0.01056678	     -0.30595718	     33.46794794	     -5.74797633	     -4.82693764	    -51.21506934	     -4.89442250	      4.51606849	     25.10782365	      6.03314135	      8.55250502	     14.21927276	     -7.89334304	      6.62751692	     -0.75791102	    -15.84025511	     10.99239314	     -6.96715515	     -6.67871046
      4.25500000	     -9.77106057	      3.55244315	     -0.17445281	     -0.69286093	     -0.01067288	     -0.30606195	     33.89013008	     -5.55054188	     -5.01583992	    -49.89437327	     -4.35846825	      4.59716648	     24.45046282	      5.28048187	      8.34486374	     14.36535077	     -7.32690603	      6.77812149	     -0.73995309	    -15.95414735	     10.92891870	     -6.88899533	     -6.88467334
      4.26000000	     -9.75051485	      3.41269018	     -0.05685569	     -0.68688639	     -0.01085932	     -0.30613009	     34.28497534	     -5.35843476	     -5.18381959	    -48.51287342	     -3.82172717	      4.76210195	     23.80400347	      4.53855845	      8.14619547	     14.48567979	     -6.77827746	      6.92907885	     -0.70935434	    -16.04502686	     10.86482537	     -6.82505146	     -7.08587367
      4.26500000	     -9.87092409	      3.31051977	      0.01048997	     -0.68097434	     -0.01128465	     -0.30612049	     34.82784120	     -5.16800427	     -5.26267270	    -47.05295975	     -3.42087129	      4.94696097	     23.61615094	      3.98437217	      7.98423537	     14.49955186	     -6.27772162	      7.06836280	     -0.65106627	    -16.05880004	     10.95494929	     -6.79337514	     -7.20229736
      4.27000000	     -9.72415792	      3.15019479	      0.16700218	     -0.67499234	     -0.01146020	     -0.30622458	     34.99214031	     -4.99485588	     -5.51169370	    -45.52554469	     -2.82776608	      5.29102092	     22.89001950	      3.12252111	      7.76485153	     14.62300241	     -5.76148350	      7.24924354	     -0.57045141	    -16.09730490	     10.74155269	     -6.71481568	     -7.47326763
      4.27500000	     -9.71989082	      3.03383429	      0.25298894	     -0.66906230	     -0.01187962	     -0.30621443	     35.31510546	     -4.81256864	     -5.64550309	    -43.96192404	     -2.25626414	      5.75866563	     22.24294761	      2.44359424	      7.58809879	     14.64844502	     -5.28574016	      7.41815594	     -0.50286828	    -16.11792079	     10.68990838	     -6.67150880	     -7.63202807
